# xmcd
#
# Track frame offsets:
#	150
#	15416
#	31562
#	51436
#	63943
#	86114
#	103380
#	121738
#	135741
#	151333
#
# Disc length: 2311 seconds
#
# Revision: 1
# Processed by: cddbd v1.5.2PL0 Copyright (c) Steve Scherf et al.
# Submitted via: audiograbber 1.81.02
#
DISCID=7a09050a
DTITLE=Lazy Buddies - Swing It, Swing It Babe
DYEAR=2008
DGENRE=Blues
TTITLE0=Work what you got.wav
TTITLE1=I wanna do more.wav
TTITLE2=Combien
TTITLE3=Let the Mamy hold you
TTITLE4=You were wrong
TTITLE5=Rock ya all night long
TTITLE6=The Daddy
TTITLE7=Mama, he treats your daughter mean
TTITLE8=Think
TTITLE9=The hucklebuck (live)
EXTD=Blues band from Rennes (France - Brittany)
EXTT0=
EXTT1=
EXTT2=
EXTT3=
EXTT4=
EXTT5=
EXTT6=
EXTT7=
EXTT8=
EXTT9=
PLAYORDER=
